<svg width="75" height="73" viewBox="0 0 75 73" fill="none" xmlns="http://www.w3.org/2000/svg">
<path d="M70.3125 13.6875V9.125H63.2812V4.5625H58.5938V9.125H56.25C53.6648 9.125 51.5625 11.1736 51.5625 13.6875V18.25C51.5625 20.7662 53.6648 22.8125 56.25 22.8125H65.625V27.375H51.5625V31.9375H58.5938V36.5H63.2812V31.9375H65.625C68.2102 31.9375 70.3125 29.8912 70.3125 27.375V22.8125C70.3125 20.2986 68.2102 18.25 65.625 18.25H56.25V13.6875H70.3125ZM56.25 45.625V50.1875H62.3109L53.9062 58.3681L48.5344 53.1372C48.0955 52.7099 47.5004 52.4695 46.8797 52.4688H46.875C46.5676 52.4687 46.2632 52.5278 45.9792 52.6425C45.6953 52.7572 45.4374 52.9253 45.2203 53.1372L32.8125 65.2118L36.1266 68.4375L46.8773 57.9757L52.2492 63.2066C52.6887 63.6343 53.2848 63.8745 53.9062 63.8745C54.5277 63.8745 55.1238 63.6343 55.5633 63.2066L65.625 53.4132V59.3125H70.3125V45.625H56.25ZM9.375 68.4375H4.6875V57.0312C4.6875 48.2256 12.0469 41.0625 21.0938 41.0625H35.1562C39.818 41.0625 44.2734 43.0016 47.3836 46.3847L43.8914 49.4278C42.7915 48.2324 41.4451 47.2759 39.9401 46.6207C38.435 45.9654 36.805 45.6262 35.1562 45.625H21.0938C14.632 45.625 9.375 50.7418 9.375 57.0312V68.4375ZM28.125 36.5C32.4762 36.5 36.6492 34.8176 39.726 31.8229C42.8027 28.8281 44.5312 24.7664 44.5312 20.5312C44.5312 16.2961 42.8027 12.2344 39.726 9.23964C36.6492 6.24492 32.4762 4.5625 28.125 4.5625C23.7738 4.5625 19.6008 6.24492 16.524 9.23964C13.4473 12.2344 11.7188 16.2961 11.7188 20.5312C11.7188 24.7664 13.4473 28.8281 16.524 31.8229C19.6008 34.8176 23.7738 36.5 28.125 36.5ZM28.125 9.125C31.233 9.125 34.2137 10.3267 36.4114 12.4658C38.6091 14.6049 39.8438 17.5061 39.8438 20.5312C39.8438 23.5564 38.6091 26.4576 36.4114 28.5967C34.2137 30.7358 31.233 31.9375 28.125 31.9375C25.017 31.9375 22.0363 30.7358 19.8386 28.5967C17.6409 26.4576 16.4062 23.5564 16.4062 20.5312C16.4062 17.5061 17.6409 14.6049 19.8386 12.4658C22.0363 10.3267 25.017 9.125 28.125 9.125Z" fill="black"/>
</svg>
