<svg width="77" height="76" viewBox="0 0 77 76" fill="none" xmlns="http://www.w3.org/2000/svg">
<path d="M53.7002 10.4501C53.7002 9.69423 54.0005 8.96932 54.5349 8.43484C55.0694 7.90036 55.7943 7.6001 56.5502 7.6001H66.0502C66.8061 7.6001 67.531 7.90036 68.0654 8.43484C68.5999 8.96932 68.9002 9.69423 68.9002 10.4501V19.9501C68.9002 20.706 68.5999 21.4309 68.0654 21.9654C67.531 22.4998 66.8061 22.8001 66.0502 22.8001C65.2943 22.8001 64.5694 22.4998 64.0349 21.9654C63.5005 21.4309 63.2002 20.706 63.2002 19.9501V17.3281L46.2142 34.3141C45.6798 34.8478 44.9554 35.1476 44.2002 35.1476C43.4449 35.1476 42.7206 34.8478 42.1862 34.3141L32.8002 24.9281L16.7642 40.9641C16.5033 41.2441 16.1886 41.4687 15.839 41.6245C15.4894 41.7802 15.112 41.864 14.7294 41.8708C14.3467 41.8775 13.9666 41.8071 13.6117 41.6638C13.2568 41.5204 12.9345 41.3071 12.6638 41.0364C12.3932 40.7658 12.1799 40.4434 12.0365 40.0886C11.8932 39.7337 11.8228 39.3536 11.8295 38.9709C11.8363 38.5882 11.9201 38.2109 12.0758 37.8613C12.2316 37.5117 12.4562 37.197 12.7362 36.9361L30.7862 18.8861C31.3206 18.3524 32.0449 18.0526 32.8002 18.0526C33.5554 18.0526 34.2798 18.3524 34.8142 18.8861L44.2002 28.2721L59.1722 13.3001H56.5502C55.7943 13.3001 55.0694 12.9998 54.5349 12.4654C54.0005 11.9309 53.7002 11.206 53.7002 10.4501ZM14.7502 53.2001C15.5061 53.2001 16.231 53.5004 16.7654 54.0349C17.2999 54.5693 17.6002 55.2942 17.6002 56.0501V65.5501C17.6002 66.306 17.2999 67.0309 16.7654 67.5654C16.231 68.0998 15.5061 68.4001 14.7502 68.4001C13.9943 68.4001 13.2694 68.0998 12.7349 67.5654C12.2005 67.0309 11.9002 66.306 11.9002 65.5501V56.0501C11.9002 55.2942 12.2005 54.5693 12.7349 54.0349C13.2694 53.5004 13.9943 53.2001 14.7502 53.2001ZM32.8002 44.6501C32.8002 43.8942 32.4999 43.1693 31.9654 42.6348C31.431 42.1004 30.7061 41.8001 29.9502 41.8001C29.1943 41.8001 28.4694 42.1004 27.9349 42.6348C27.4005 43.1693 27.1002 43.8942 27.1002 44.6501V65.5501C27.1002 66.306 27.4005 67.0309 27.9349 67.5654C28.4694 68.0998 29.1943 68.4001 29.9502 68.4001C30.7061 68.4001 31.431 68.0998 31.9654 67.5654C32.4999 67.0309 32.8002 66.306 32.8002 65.5501V44.6501ZM45.1502 49.4001C45.9061 49.4001 46.631 49.7004 47.1654 50.2348C47.6999 50.7693 48.0002 51.4942 48.0002 52.2501V65.5501C48.0002 66.306 47.6999 67.0309 47.1654 67.5654C46.631 68.0998 45.9061 68.4001 45.1502 68.4001C44.3943 68.4001 43.6694 68.0998 43.1349 67.5654C42.6005 67.0309 42.3002 66.306 42.3002 65.5501V52.2501C42.3002 51.4942 42.6005 50.7693 43.1349 50.2348C43.6694 49.7004 44.3943 49.4001 45.1502 49.4001ZM63.2002 37.0501C63.2002 36.2942 62.8999 35.5693 62.3654 35.0348C61.831 34.5004 61.1061 34.2001 60.3502 34.2001C59.5943 34.2001 58.8694 34.5004 58.3349 35.0348C57.8005 35.5693 57.5002 36.2942 57.5002 37.0501V65.5501C57.5002 66.306 57.8005 67.0309 58.3349 67.5654C58.8694 68.0998 59.5943 68.4001 60.3502 68.4001C61.1061 68.4001 61.831 68.0998 62.3654 67.5654C62.8999 67.0309 63.2002 66.306 63.2002 65.5501V37.0501Z" fill="black"/>
</svg>
