<svg width="75" height="76" viewBox="0 0 75 76" fill="none" xmlns="http://www.w3.org/2000/svg">
<mask id="path-1-outside-1_2_3098" maskUnits="userSpaceOnUse" x="-1" y="0" width="77" height="76" fill="black">
<rect fill="white" x="-1" width="77" height="76"/>
<path d="M12.4194 59.3691C12.1995 59.9273 11.6655 60.2668 11.0996 60.2668C10.9258 60.2668 10.7484 60.2348 10.5763 60.1655C5.14625 58.0092 1.85203 55.2379 1.04666 52.1536C0.847976 51.3946 1.30211 50.616 2.06136 50.4187C2.82061 50.2213 3.59582 50.6746 3.79273 51.4355C4.35152 53.5758 7.13308 55.7392 11.6247 57.5239C12.352 57.8119 12.7086 58.6385 12.4194 59.3691ZM17.2428 44.4813C17.5107 44.7089 17.8371 44.8208 18.1617 44.8208C18.5626 44.8208 18.9618 44.6502 19.242 44.3213C19.7512 43.724 19.6784 42.8263 19.0824 42.3161C18.3781 41.7153 17.6898 41.0789 17.0353 40.4229C10.7981 34.1727 7.53221 26.2284 8.52208 19.8964C11.183 19.4787 14.1278 19.8164 17.1115 20.8155C17.2375 20.8812 17.3759 20.9292 17.5195 20.9559C21.4914 22.3638 25.5147 24.9289 29.0059 28.4274C29.884 29.3073 30.7213 30.2423 31.4929 31.2023C31.9843 31.8138 32.8784 31.9098 33.4886 31.4174C34.0989 30.925 34.1947 30.029 33.7033 29.4175C32.8678 28.3776 31.963 27.3679 31.0122 26.4151C27.4253 22.8207 23.2884 20.1275 19.1285 18.5383C19.0274 15.966 19.462 13.6178 20.3827 11.7672C22.7261 12.2774 25.1511 13.7066 27.3313 15.87C27.0279 17.0842 26.7849 18.3392 26.6093 19.6262C26.5028 20.4048 27.0457 21.1212 27.8226 21.2279C28.5996 21.3345 29.3145 20.7906 29.421 20.012C30.3754 13.0436 33.3946 7.19333 37.5705 4.13755C41.7464 7.19333 44.7656 13.0418 45.72 20.0084C45.8264 20.787 46.5413 21.331 47.3183 21.2243C48.0953 21.1177 48.6382 20.3995 48.5317 19.6227C48.3561 18.3356 48.1131 17.0824 47.8097 15.87C49.9899 13.7066 52.4167 12.2774 54.7583 11.7672C55.6772 13.6178 56.1136 15.966 56.0125 18.5383C51.8525 20.1293 47.7157 22.8224 44.1288 26.4151C43.1779 27.3679 42.2732 28.3776 41.4377 29.4175C40.9463 30.029 41.0421 30.925 41.6523 31.4174C42.2626 31.9098 43.1567 31.8138 43.648 31.2023C44.4197 30.2423 45.257 29.3091 46.1351 28.4274C49.6262 24.9289 53.6478 22.362 57.6197 20.9559C57.7651 20.9292 57.9035 20.8812 58.0294 20.8155C61.0132 19.8182 63.958 19.4787 66.6189 19.8964C67.6088 26.2302 64.3429 34.1745 58.1057 40.4229C57.4511 41.0789 56.7628 41.7153 56.0586 42.3161C55.4625 42.8245 55.3898 43.7223 55.8971 44.3213C56.4045 44.9186 57.3003 44.9915 57.8982 44.4831C58.6592 43.8342 59.4042 43.1445 60.1121 42.4352C67.3214 35.2126 70.8923 25.7644 69.2142 18.3676C69.0936 17.8343 68.6785 17.4184 68.1445 17.2957C65.276 16.6415 62.0989 16.782 58.8614 17.6228C58.8313 14.4906 58.0862 11.6392 56.7061 9.44384C56.4151 8.98165 55.8847 8.72744 55.3419 8.78966C52.4912 9.1203 49.5429 10.5424 46.8926 12.8445C45.0601 7.7124 42.0568 3.57226 38.3244 1.21865C37.8632 0.927116 37.2742 0.927116 36.813 1.21865C33.0806 3.57226 30.0773 7.7124 28.2448 12.8445C25.5946 10.5424 22.6498 9.1203 19.7955 8.78966C19.2527 8.72744 18.7241 8.98165 18.4331 9.44384C17.0548 11.6392 16.3115 14.4906 16.2813 17.6228C13.0456 16.782 9.86673 16.6415 6.99826 17.2957C6.46607 17.4166 6.05097 17.8343 5.92856 18.3676C4.24864 25.7644 7.82137 35.2109 15.0307 42.4352C15.7367 43.1427 16.4818 43.8307 17.2428 44.4813ZM16.5705 55.6023C16.8295 54.861 16.4392 54.0504 15.6995 53.7909C11.4172 52.2905 8.8609 50.3938 8.8609 48.7192C8.8609 47.6366 9.97494 46.4136 11.9972 45.2741C12.6802 44.8902 12.9232 44.0227 12.5383 43.3383C12.1551 42.6539 11.2894 42.4103 10.6065 42.7961C7.56415 44.5098 6.02258 46.5025 6.02258 48.721C6.02258 51.7928 9.04539 54.4735 14.7628 56.4787C14.9172 56.5338 15.075 56.5587 15.2312 56.5587C15.8183 56.5569 16.3665 56.1889 16.5705 55.6023ZM59.1612 53.8904C58.4197 54.1428 58.0223 54.9499 58.2742 55.6947C58.4747 56.2867 59.0264 56.66 59.6171 56.66C59.7679 56.66 59.9222 56.6351 60.073 56.5835C65.9927 54.5695 69.1237 51.8497 69.1237 48.7192C69.1237 46.5807 67.6868 44.6484 64.8538 42.9756C64.1779 42.5774 63.3087 42.8014 62.9113 43.4787C62.514 44.156 62.7375 45.0271 63.4134 45.4252C65.2654 46.5185 66.2854 47.6882 66.2854 48.7174C66.2836 50.4133 63.5553 52.3954 59.1612 53.8904ZM51.6468 64.2843C51.6468 65.7242 50.4777 66.8975 49.0391 66.8975C48.255 66.8975 47.6199 67.5339 47.6199 68.3196C47.6199 69.1053 48.255 69.7417 49.0391 69.7417C52.0424 69.7417 54.4851 67.2939 54.4851 64.2843C54.4851 63.4986 53.85 62.8622 53.0659 62.8622C52.2818 62.8622 51.6468 63.4986 51.6468 64.2843ZM72.9377 50.4187C72.1802 50.2213 71.4032 50.6746 71.2063 51.4355C70.6475 53.5775 67.8678 55.7392 63.3761 57.5239C62.647 57.8137 62.2905 58.6403 62.5796 59.3709C62.7996 59.9291 63.3353 60.2686 63.8994 60.2686C64.0733 60.2686 64.2507 60.2366 64.4227 60.1673C69.8528 58.0092 73.1488 55.2379 73.9542 52.1536C74.1511 51.3946 73.6952 50.6178 72.9377 50.4187ZM47.7192 51.0355C47.7192 51.8106 47.0913 52.4398 46.3178 52.4398C45.5337 52.4398 44.8987 53.0762 44.8987 53.862C44.8987 54.6477 45.5337 55.2841 46.3178 55.2841C48.6559 55.2841 50.5576 53.3784 50.5576 51.0355C50.5576 50.2498 49.9225 49.6134 49.1384 49.6134C48.3543 49.6134 47.7192 50.2516 47.7192 51.0355ZM43.664 41.9535H44.0348C44.8188 41.9535 45.4539 41.3171 45.4539 40.5314C45.4539 39.7457 44.8188 39.1093 44.0348 39.1093H43.664C42.8799 39.1093 42.2448 39.7457 42.2448 40.5314C42.2448 41.3171 42.8817 41.9535 43.664 41.9535ZM58.3239 58.2581C59.6242 60.066 60.3125 62.1974 60.3125 64.4212C60.3125 70.2537 55.5778 75 49.7557 75H25.3906C19.5702 75 14.8338 70.2555 14.8338 64.423C14.8338 60.553 16.9732 57.012 20.294 55.1668C19.8292 54.1144 19.572 52.9483 19.572 51.7252C19.572 48.0046 21.958 44.8315 25.277 43.6618C24.5444 42.5988 24.1133 41.31 24.1133 39.9216C24.1133 36.2863 27.0652 33.3283 30.6929 33.3283H44.4534C48.0811 33.3283 51.033 36.2863 51.033 39.9216C51.033 43.5569 48.0811 46.5149 44.4534 46.5149H30.6929C29.8095 46.5149 28.9668 46.339 28.1952 46.0225C28.1632 46.0243 28.1295 46.0261 28.0976 46.0261C24.9613 46.0261 22.4103 48.5823 22.4103 51.7252C22.4103 52.9003 22.7669 53.9953 23.3789 54.9037C23.4268 54.9623 23.4711 55.0246 23.5102 55.0903C24.5462 56.5036 26.2172 57.4244 28.0976 57.4244H47.0487C50.185 57.4244 52.736 54.8681 52.736 51.7252C52.736 50.0329 51.9838 48.4348 50.6711 47.3415C50.068 46.8403 49.9864 45.9425 50.4866 45.3381C50.9869 44.7337 51.8827 44.652 52.4859 45.1533C54.4478 46.7887 55.5743 49.1832 55.5743 51.7235C55.5743 56.4342 51.7497 60.2668 47.0487 60.2668H28.0976C25.6407 60.2668 23.4232 59.2198 21.8657 57.547C19.3237 58.8643 17.6721 61.5165 17.6721 64.4212C17.6721 68.6858 21.1349 72.1558 25.3906 72.1558H49.7557C54.0114 72.1558 57.4742 68.6858 57.4742 64.423C57.4742 62.8 56.9722 61.2445 56.0213 59.9238C55.5636 59.2874 55.7073 58.3985 56.3424 57.9381C56.9775 57.4777 57.8645 57.6217 58.3239 58.2581ZM26.9516 39.9216C26.9516 41.989 28.6298 43.6707 30.6929 43.6707H44.4534C46.5165 43.6707 48.1947 41.989 48.1947 39.9216C48.1947 37.8542 46.5165 36.1726 44.4534 36.1726H30.6929C28.6298 36.1726 26.9516 37.8542 26.9516 39.9216Z"/>
</mask>
<path d="M12.4194 59.3691C12.1995 59.9273 11.6655 60.2668 11.0996 60.2668C10.9258 60.2668 10.7484 60.2348 10.5763 60.1655C5.14625 58.0092 1.85203 55.2379 1.04666 52.1536C0.847976 51.3946 1.30211 50.616 2.06136 50.4187C2.82061 50.2213 3.59582 50.6746 3.79273 51.4355C4.35152 53.5758 7.13308 55.7392 11.6247 57.5239C12.352 57.8119 12.7086 58.6385 12.4194 59.3691ZM17.2428 44.4813C17.5107 44.7089 17.8371 44.8208 18.1617 44.8208C18.5626 44.8208 18.9618 44.6502 19.242 44.3213C19.7512 43.724 19.6784 42.8263 19.0824 42.3161C18.3781 41.7153 17.6898 41.0789 17.0353 40.4229C10.7981 34.1727 7.53221 26.2284 8.52208 19.8964C11.183 19.4787 14.1278 19.8164 17.1115 20.8155C17.2375 20.8812 17.3759 20.9292 17.5195 20.9559C21.4914 22.3638 25.5147 24.9289 29.0059 28.4274C29.884 29.3073 30.7213 30.2423 31.4929 31.2023C31.9843 31.8138 32.8784 31.9098 33.4886 31.4174C34.0989 30.925 34.1947 30.029 33.7033 29.4175C32.8678 28.3776 31.963 27.3679 31.0122 26.4151C27.4253 22.8207 23.2884 20.1275 19.1285 18.5383C19.0274 15.966 19.462 13.6178 20.3827 11.7672C22.7261 12.2774 25.1511 13.7066 27.3313 15.87C27.0279 17.0842 26.7849 18.3392 26.6093 19.6262C26.5028 20.4048 27.0457 21.1212 27.8226 21.2279C28.5996 21.3345 29.3145 20.7906 29.421 20.012C30.3754 13.0436 33.3946 7.19333 37.5705 4.13755C41.7464 7.19333 44.7656 13.0418 45.72 20.0084C45.8264 20.787 46.5413 21.331 47.3183 21.2243C48.0953 21.1177 48.6382 20.3995 48.5317 19.6227C48.3561 18.3356 48.1131 17.0824 47.8097 15.87C49.9899 13.7066 52.4167 12.2774 54.7583 11.7672C55.6772 13.6178 56.1136 15.966 56.0125 18.5383C51.8525 20.1293 47.7157 22.8224 44.1288 26.4151C43.1779 27.3679 42.2732 28.3776 41.4377 29.4175C40.9463 30.029 41.0421 30.925 41.6523 31.4174C42.2626 31.9098 43.1567 31.8138 43.648 31.2023C44.4197 30.2423 45.257 29.3091 46.1351 28.4274C49.6262 24.9289 53.6478 22.362 57.6197 20.9559C57.7651 20.9292 57.9035 20.8812 58.0294 20.8155C61.0132 19.8182 63.958 19.4787 66.6189 19.8964C67.6088 26.2302 64.3429 34.1745 58.1057 40.4229C57.4511 41.0789 56.7628 41.7153 56.0586 42.3161C55.4625 42.8245 55.3898 43.7223 55.8971 44.3213C56.4045 44.9186 57.3003 44.9915 57.8982 44.4831C58.6592 43.8342 59.4042 43.1445 60.1121 42.4352C67.3214 35.2126 70.8923 25.7644 69.2142 18.3676C69.0936 17.8343 68.6785 17.4184 68.1445 17.2957C65.276 16.6415 62.0989 16.782 58.8614 17.6228C58.8313 14.4906 58.0862 11.6392 56.7061 9.44384C56.4151 8.98165 55.8847 8.72744 55.3419 8.78966C52.4912 9.1203 49.5429 10.5424 46.8926 12.8445C45.0601 7.7124 42.0568 3.57226 38.3244 1.21865C37.8632 0.927116 37.2742 0.927116 36.813 1.21865C33.0806 3.57226 30.0773 7.7124 28.2448 12.8445C25.5946 10.5424 22.6498 9.1203 19.7955 8.78966C19.2527 8.72744 18.7241 8.98165 18.4331 9.44384C17.0548 11.6392 16.3115 14.4906 16.2813 17.6228C13.0456 16.782 9.86673 16.6415 6.99826 17.2957C6.46607 17.4166 6.05097 17.8343 5.92856 18.3676C4.24864 25.7644 7.82137 35.2109 15.0307 42.4352C15.7367 43.1427 16.4818 43.8307 17.2428 44.4813ZM16.5705 55.6023C16.8295 54.861 16.4392 54.0504 15.6995 53.7909C11.4172 52.2905 8.8609 50.3938 8.8609 48.7192C8.8609 47.6366 9.97494 46.4136 11.9972 45.2741C12.6802 44.8902 12.9232 44.0227 12.5383 43.3383C12.1551 42.6539 11.2894 42.4103 10.6065 42.7961C7.56415 44.5098 6.02258 46.5025 6.02258 48.721C6.02258 51.7928 9.04539 54.4735 14.7628 56.4787C14.9172 56.5338 15.075 56.5587 15.2312 56.5587C15.8183 56.5569 16.3665 56.1889 16.5705 55.6023ZM59.1612 53.8904C58.4197 54.1428 58.0223 54.9499 58.2742 55.6947C58.4747 56.2867 59.0264 56.66 59.6171 56.66C59.7679 56.66 59.9222 56.6351 60.073 56.5835C65.9927 54.5695 69.1237 51.8497 69.1237 48.7192C69.1237 46.5807 67.6868 44.6484 64.8538 42.9756C64.1779 42.5774 63.3087 42.8014 62.9113 43.4787C62.514 44.156 62.7375 45.0271 63.4134 45.4252C65.2654 46.5185 66.2854 47.6882 66.2854 48.7174C66.2836 50.4133 63.5553 52.3954 59.1612 53.8904ZM51.6468 64.2843C51.6468 65.7242 50.4777 66.8975 49.0391 66.8975C48.255 66.8975 47.6199 67.5339 47.6199 68.3196C47.6199 69.1053 48.255 69.7417 49.0391 69.7417C52.0424 69.7417 54.4851 67.2939 54.4851 64.2843C54.4851 63.4986 53.85 62.8622 53.0659 62.8622C52.2818 62.8622 51.6468 63.4986 51.6468 64.2843ZM72.9377 50.4187C72.1802 50.2213 71.4032 50.6746 71.2063 51.4355C70.6475 53.5775 67.8678 55.7392 63.3761 57.5239C62.647 57.8137 62.2905 58.6403 62.5796 59.3709C62.7996 59.9291 63.3353 60.2686 63.8994 60.2686C64.0733 60.2686 64.2507 60.2366 64.4227 60.1673C69.8528 58.0092 73.1488 55.2379 73.9542 52.1536C74.1511 51.3946 73.6952 50.6178 72.9377 50.4187ZM47.7192 51.0355C47.7192 51.8106 47.0913 52.4398 46.3178 52.4398C45.5337 52.4398 44.8987 53.0762 44.8987 53.862C44.8987 54.6477 45.5337 55.2841 46.3178 55.2841C48.6559 55.2841 50.5576 53.3784 50.5576 51.0355C50.5576 50.2498 49.9225 49.6134 49.1384 49.6134C48.3543 49.6134 47.7192 50.2516 47.7192 51.0355ZM43.664 41.9535H44.0348C44.8188 41.9535 45.4539 41.3171 45.4539 40.5314C45.4539 39.7457 44.8188 39.1093 44.0348 39.1093H43.664C42.8799 39.1093 42.2448 39.7457 42.2448 40.5314C42.2448 41.3171 42.8817 41.9535 43.664 41.9535ZM58.3239 58.2581C59.6242 60.066 60.3125 62.1974 60.3125 64.4212C60.3125 70.2537 55.5778 75 49.7557 75H25.3906C19.5702 75 14.8338 70.2555 14.8338 64.423C14.8338 60.553 16.9732 57.012 20.294 55.1668C19.8292 54.1144 19.572 52.9483 19.572 51.7252C19.572 48.0046 21.958 44.8315 25.277 43.6618C24.5444 42.5988 24.1133 41.31 24.1133 39.9216C24.1133 36.2863 27.0652 33.3283 30.6929 33.3283H44.4534C48.0811 33.3283 51.033 36.2863 51.033 39.9216C51.033 43.5569 48.0811 46.5149 44.4534 46.5149H30.6929C29.8095 46.5149 28.9668 46.339 28.1952 46.0225C28.1632 46.0243 28.1295 46.0261 28.0976 46.0261C24.9613 46.0261 22.4103 48.5823 22.4103 51.7252C22.4103 52.9003 22.7669 53.9953 23.3789 54.9037C23.4268 54.9623 23.4711 55.0246 23.5102 55.0903C24.5462 56.5036 26.2172 57.4244 28.0976 57.4244H47.0487C50.185 57.4244 52.736 54.8681 52.736 51.7252C52.736 50.0329 51.9838 48.4348 50.6711 47.3415C50.068 46.8403 49.9864 45.9425 50.4866 45.3381C50.9869 44.7337 51.8827 44.652 52.4859 45.1533C54.4478 46.7887 55.5743 49.1832 55.5743 51.7235C55.5743 56.4342 51.7497 60.2668 47.0487 60.2668H28.0976C25.6407 60.2668 23.4232 59.2198 21.8657 57.547C19.3237 58.8643 17.6721 61.5165 17.6721 64.4212C17.6721 68.6858 21.1349 72.1558 25.3906 72.1558H49.7557C54.0114 72.1558 57.4742 68.6858 57.4742 64.423C57.4742 62.8 56.9722 61.2445 56.0213 59.9238C55.5636 59.2874 55.7073 58.3985 56.3424 57.9381C56.9775 57.4777 57.8645 57.6217 58.3239 58.2581ZM26.9516 39.9216C26.9516 41.989 28.6298 43.6707 30.6929 43.6707H44.4534C46.5165 43.6707 48.1947 41.989 48.1947 39.9216C48.1947 37.8542 46.5165 36.1726 44.4534 36.1726H30.6929C28.6298 36.1726 26.9516 37.8542 26.9516 39.9216Z" fill="black"/>
<path d="M12.4194 59.3691C12.1995 59.9273 11.6655 60.2668 11.0996 60.2668C10.9258 60.2668 10.7484 60.2348 10.5763 60.1655C5.14625 58.0092 1.85203 55.2379 1.04666 52.1536C0.847976 51.3946 1.30211 50.616 2.06136 50.4187C2.82061 50.2213 3.59582 50.6746 3.79273 51.4355C4.35152 53.5758 7.13308 55.7392 11.6247 57.5239C12.352 57.8119 12.7086 58.6385 12.4194 59.3691ZM17.2428 44.4813C17.5107 44.7089 17.8371 44.8208 18.1617 44.8208C18.5626 44.8208 18.9618 44.6502 19.242 44.3213C19.7512 43.724 19.6784 42.8263 19.0824 42.3161C18.3781 41.7153 17.6898 41.0789 17.0353 40.4229C10.7981 34.1727 7.53221 26.2284 8.52208 19.8964C11.183 19.4787 14.1278 19.8164 17.1115 20.8155C17.2375 20.8812 17.3759 20.9292 17.5195 20.9559C21.4914 22.3638 25.5147 24.9289 29.0059 28.4274C29.884 29.3073 30.7213 30.2423 31.4929 31.2023C31.9843 31.8138 32.8784 31.9098 33.4886 31.4174C34.0989 30.925 34.1947 30.029 33.7033 29.4175C32.8678 28.3776 31.963 27.3679 31.0122 26.4151C27.4253 22.8207 23.2884 20.1275 19.1285 18.5383C19.0274 15.966 19.462 13.6178 20.3827 11.7672C22.7261 12.2774 25.1511 13.7066 27.3313 15.87C27.0279 17.0842 26.7849 18.3392 26.6093 19.6262C26.5028 20.4048 27.0457 21.1212 27.8226 21.2279C28.5996 21.3345 29.3145 20.7906 29.421 20.012C30.3754 13.0436 33.3946 7.19333 37.5705 4.13755C41.7464 7.19333 44.7656 13.0418 45.72 20.0084C45.8264 20.787 46.5413 21.331 47.3183 21.2243C48.0953 21.1177 48.6382 20.3995 48.5317 19.6227C48.3561 18.3356 48.1131 17.0824 47.8097 15.87C49.9899 13.7066 52.4167 12.2774 54.7583 11.7672C55.6772 13.6178 56.1136 15.966 56.0125 18.5383C51.8525 20.1293 47.7157 22.8224 44.1288 26.4151C43.1779 27.3679 42.2732 28.3776 41.4377 29.4175C40.9463 30.029 41.0421 30.925 41.6523 31.4174C42.2626 31.9098 43.1567 31.8138 43.648 31.2023C44.4197 30.2423 45.257 29.3091 46.1351 28.4274C49.6262 24.9289 53.6478 22.362 57.6197 20.9559C57.7651 20.9292 57.9035 20.8812 58.0294 20.8155C61.0132 19.8182 63.958 19.4787 66.6189 19.8964C67.6088 26.2302 64.3429 34.1745 58.1057 40.4229C57.4511 41.0789 56.7628 41.7153 56.0586 42.3161C55.4625 42.8245 55.3898 43.7223 55.8971 44.3213C56.4045 44.9186 57.3003 44.9915 57.8982 44.4831C58.6592 43.8342 59.4042 43.1445 60.1121 42.4352C67.3214 35.2126 70.8923 25.7644 69.2142 18.3676C69.0936 17.8343 68.6785 17.4184 68.1445 17.2957C65.276 16.6415 62.0989 16.782 58.8614 17.6228C58.8313 14.4906 58.0862 11.6392 56.7061 9.44384C56.4151 8.98165 55.8847 8.72744 55.3419 8.78966C52.4912 9.1203 49.5429 10.5424 46.8926 12.8445C45.0601 7.7124 42.0568 3.57226 38.3244 1.21865C37.8632 0.927116 37.2742 0.927116 36.813 1.21865C33.0806 3.57226 30.0773 7.7124 28.2448 12.8445C25.5946 10.5424 22.6498 9.1203 19.7955 8.78966C19.2527 8.72744 18.7241 8.98165 18.4331 9.44384C17.0548 11.6392 16.3115 14.4906 16.2813 17.6228C13.0456 16.782 9.86673 16.6415 6.99826 17.2957C6.46607 17.4166 6.05097 17.8343 5.92856 18.3676C4.24864 25.7644 7.82137 35.2109 15.0307 42.4352C15.7367 43.1427 16.4818 43.8307 17.2428 44.4813ZM16.5705 55.6023C16.8295 54.861 16.4392 54.0504 15.6995 53.7909C11.4172 52.2905 8.8609 50.3938 8.8609 48.7192C8.8609 47.6366 9.97494 46.4136 11.9972 45.2741C12.6802 44.8902 12.9232 44.0227 12.5383 43.3383C12.1551 42.6539 11.2894 42.4103 10.6065 42.7961C7.56415 44.5098 6.02258 46.5025 6.02258 48.721C6.02258 51.7928 9.04539 54.4735 14.7628 56.4787C14.9172 56.5338 15.075 56.5587 15.2312 56.5587C15.8183 56.5569 16.3665 56.1889 16.5705 55.6023ZM59.1612 53.8904C58.4197 54.1428 58.0223 54.9499 58.2742 55.6947C58.4747 56.2867 59.0264 56.66 59.6171 56.66C59.7679 56.66 59.9222 56.6351 60.073 56.5835C65.9927 54.5695 69.1237 51.8497 69.1237 48.7192C69.1237 46.5807 67.6868 44.6484 64.8538 42.9756C64.1779 42.5774 63.3087 42.8014 62.9113 43.4787C62.514 44.156 62.7375 45.0271 63.4134 45.4252C65.2654 46.5185 66.2854 47.6882 66.2854 48.7174C66.2836 50.4133 63.5553 52.3954 59.1612 53.8904ZM51.6468 64.2843C51.6468 65.7242 50.4777 66.8975 49.0391 66.8975C48.255 66.8975 47.6199 67.5339 47.6199 68.3196C47.6199 69.1053 48.255 69.7417 49.0391 69.7417C52.0424 69.7417 54.4851 67.2939 54.4851 64.2843C54.4851 63.4986 53.85 62.8622 53.0659 62.8622C52.2818 62.8622 51.6468 63.4986 51.6468 64.2843ZM72.9377 50.4187C72.1802 50.2213 71.4032 50.6746 71.2063 51.4355C70.6475 53.5775 67.8678 55.7392 63.3761 57.5239C62.647 57.8137 62.2905 58.6403 62.5796 59.3709C62.7996 59.9291 63.3353 60.2686 63.8994 60.2686C64.0733 60.2686 64.2507 60.2366 64.4227 60.1673C69.8528 58.0092 73.1488 55.2379 73.9542 52.1536C74.1511 51.3946 73.6952 50.6178 72.9377 50.4187ZM47.7192 51.0355C47.7192 51.8106 47.0913 52.4398 46.3178 52.4398C45.5337 52.4398 44.8987 53.0762 44.8987 53.862C44.8987 54.6477 45.5337 55.2841 46.3178 55.2841C48.6559 55.2841 50.5576 53.3784 50.5576 51.0355C50.5576 50.2498 49.9225 49.6134 49.1384 49.6134C48.3543 49.6134 47.7192 50.2516 47.7192 51.0355ZM43.664 41.9535H44.0348C44.8188 41.9535 45.4539 41.3171 45.4539 40.5314C45.4539 39.7457 44.8188 39.1093 44.0348 39.1093H43.664C42.8799 39.1093 42.2448 39.7457 42.2448 40.5314C42.2448 41.3171 42.8817 41.9535 43.664 41.9535ZM58.3239 58.2581C59.6242 60.066 60.3125 62.1974 60.3125 64.4212C60.3125 70.2537 55.5778 75 49.7557 75H25.3906C19.5702 75 14.8338 70.2555 14.8338 64.423C14.8338 60.553 16.9732 57.012 20.294 55.1668C19.8292 54.1144 19.572 52.9483 19.572 51.7252C19.572 48.0046 21.958 44.8315 25.277 43.6618C24.5444 42.5988 24.1133 41.31 24.1133 39.9216C24.1133 36.2863 27.0652 33.3283 30.6929 33.3283H44.4534C48.0811 33.3283 51.033 36.2863 51.033 39.9216C51.033 43.5569 48.0811 46.5149 44.4534 46.5149H30.6929C29.8095 46.5149 28.9668 46.339 28.1952 46.0225C28.1632 46.0243 28.1295 46.0261 28.0976 46.0261C24.9613 46.0261 22.4103 48.5823 22.4103 51.7252C22.4103 52.9003 22.7669 53.9953 23.3789 54.9037C23.4268 54.9623 23.4711 55.0246 23.5102 55.0903C24.5462 56.5036 26.2172 57.4244 28.0976 57.4244H47.0487C50.185 57.4244 52.736 54.8681 52.736 51.7252C52.736 50.0329 51.9838 48.4348 50.6711 47.3415C50.068 46.8403 49.9864 45.9425 50.4866 45.3381C50.9869 44.7337 51.8827 44.652 52.4859 45.1533C54.4478 46.7887 55.5743 49.1832 55.5743 51.7235C55.5743 56.4342 51.7497 60.2668 47.0487 60.2668H28.0976C25.6407 60.2668 23.4232 59.2198 21.8657 57.547C19.3237 58.8643 17.6721 61.5165 17.6721 64.4212C17.6721 68.6858 21.1349 72.1558 25.3906 72.1558H49.7557C54.0114 72.1558 57.4742 68.6858 57.4742 64.423C57.4742 62.8 56.9722 61.2445 56.0213 59.9238C55.5636 59.2874 55.7073 58.3985 56.3424 57.9381C56.9775 57.4777 57.8645 57.6217 58.3239 58.2581ZM26.9516 39.9216C26.9516 41.989 28.6298 43.6707 30.6929 43.6707H44.4534C46.5165 43.6707 48.1947 41.989 48.1947 39.9216C48.1947 37.8542 46.5165 36.1726 44.4534 36.1726H30.6929C28.6298 36.1726 26.9516 37.8542 26.9516 39.9216Z" stroke="black" stroke-width="2" mask="url(#path-1-outside-1_2_3098)"/>
</svg>
